HIERARCHY
ROOT Joint0
{
  OFFSET 0.0000 0.0000 1.0000
  CHANNELS 6 Xposition Yposition Zposition Zrotation Xrotation Yrotation
  JOINT Joint1
  {
    OFFSET 0.0811 -0.0899 -0.0114
    CHANNELS 3 Zrotation Xrotation Yrotation
    JOINT Joint4
    {
      OFFSET 0.0297 -0.3677 -0.0039
      CHANNELS 3 Zrotation Xrotation Yrotation
      JOINT Joint7
      {
        OFFSET -0.0120 -0.3841 -0.0490
        CHANNELS 3 Zrotation Xrotation Yrotation
        JOINT Joint10
        {
          OFFSET 0.0247 -0.0555 0.1226
          CHANNELS 3 Zrotation Xrotation Yrotation
          End Site
          {
            OFFSET 0.0247 -0.0555 0.1226
          }
        }
      }
    }
  }
  JOINT Joint2
  {
    OFFSET -0.0773 -0.0878 -0.0084
    CHANNELS 3 Zrotation Xrotation Yrotation
    JOINT Joint5
    {
      OFFSET -0.0344 -0.3716 -0.0062
      CHANNELS 3 Zrotation Xrotation Yrotation
      JOINT Joint8
      {
        OFFSET 0.0139 -0.3835 -0.0484
        CHANNELS 3 Zrotation Xrotation Yrotation
        JOINT Joint11
        {
          OFFSET -0.0293 -0.0469 0.1263
          CHANNELS 3 Zrotation Xrotation Yrotation
          End Site
          {
            OFFSET -0.0293 -0.0469 0.1263
          }
        }
      }
    }
  }
  JOINT Joint3
  {
    OFFSET -0.0027 0.1037 -0.0232
    CHANNELS 3 Zrotation Xrotation Yrotation
    JOINT Joint6
    {
      OFFSET 0.0030 0.1296 -0.0027
      CHANNELS 3 Zrotation Xrotation Yrotation
      JOINT Joint9
      {
        OFFSET 0.0015 0.0533 0.0332
        CHANNELS 3 Zrotation Xrotation Yrotation
        JOINT Joint12
        {
          OFFSET -0.0004 0.2283 -0.0600
          CHANNELS 3 Zrotation Xrotation Yrotation
          JOINT Joint15
          {
            OFFSET 0.0048 0.0641 0.0558
            CHANNELS 3 Zrotation Xrotation Yrotation
            End Site
            {
              OFFSET 0.0048 0.0641 0.0558
            }
          }
        }
        JOINT Joint13
        {
          OFFSET 0.0787 0.1275 -0.0430
          CHANNELS 3 Zrotation Xrotation Yrotation
          JOINT Joint16
          {
            OFFSET 0.0914 0.0355 -0.0086
            CHANNELS 3 Zrotation Xrotation Yrotation
            JOINT Joint18
            {
              OFFSET 0.2512 -0.0141 -0.0294
              CHANNELS 3 Zrotation Xrotation Yrotation
              JOINT Joint20
              {
                OFFSET 0.2431 0.0092 0.0027
                CHANNELS 3 Zrotation Xrotation Yrotation
                JOINT Joint22
                {
                  OFFSET 0.1053 -0.0108 0.0234
                  CHANNELS 3 Zrotation Xrotation Yrotation
                  JOINT Joint23
                  {
                    OFFSET 0.0332 0.0042 0.0030
                    CHANNELS 3 Zrotation Xrotation Yrotation
                    JOINT Joint24
                    {
                      OFFSET 0.0234 -0.0009 0.0005
                      CHANNELS 3 Zrotation Xrotation Yrotation
                      End Site
                      {
                        OFFSET 0.0234 -0.0009 0.0005
                      }
                    }
                  }
                }
                JOINT Joint25
                {
                  OFFSET 0.1126 -0.0078 -0.0002
                  CHANNELS 3 Zrotation Xrotation Yrotation
                  JOINT Joint26
                  {
                    OFFSET 0.0317 0.0021 -0.0047
                    CHANNELS 3 Zrotation Xrotation Yrotation
                    JOINT Joint27
                    {
                      OFFSET 0.0246 -0.0008 -0.0039
                      CHANNELS 3 Zrotation Xrotation Yrotation
                      End Site
                      {
                        OFFSET 0.0246 -0.0008 -0.0039
                      }
                    }
                  }
                }
                JOINT Joint28
                {
                  OFFSET 0.0860 -0.0168 -0.0403
                  CHANNELS 3 Zrotation Xrotation Yrotation
                  JOINT Joint29
                  {
                    OFFSET 0.0158 -0.0006 -0.0114
                    CHANNELS 3 Zrotation Xrotation Yrotation
                    JOINT Joint30
                    {
                      OFFSET 0.0161 -0.0011 -0.0109
                      CHANNELS 3 Zrotation Xrotation Yrotation
                      End Site
                      {
                        OFFSET 0.0161 -0.0011 -0.0109
                      }
                    }
                  }
                }
                JOINT Joint31
                {
                  OFFSET 0.0999 -0.0111 -0.0238
                  CHANNELS 3 Zrotation Xrotation Yrotation
                  JOINT Joint32
                  {
                    OFFSET 0.0286 0.0023 -0.0053
                    CHANNELS 3 Zrotation Xrotation Yrotation
                    JOINT Joint33
                    {
                      OFFSET 0.0234 -0.0009 -0.0074
                      CHANNELS 3 Zrotation Xrotation Yrotation
                      End Site
                      {
                        OFFSET 0.0234 -0.0009 -0.0074
                      }
                    }
                  }
                }
                JOINT Joint34
                {
                  OFFSET 0.0426 -0.0219 0.0277
                  CHANNELS 3 Zrotation Xrotation Yrotation
                  JOINT Joint35
                  {
                    OFFSET 0.0185 0.0008 0.0246
                    CHANNELS 3 Zrotation Xrotation Yrotation
                    JOINT Joint36
                    {
                      OFFSET 0.0221 -0.0048 0.0152
                      CHANNELS 3 Zrotation Xrotation Yrotation
                      End Site
                      {
                        OFFSET 0.0221 -0.0048 0.0152
                      }
                    }
                  }
                }
              }
            }
          }
        }
        JOINT Joint14
        {
          OFFSET -0.0815 0.1251 -0.0492
          CHANNELS 3 Zrotation Xrotation Yrotation
          JOINT Joint17
          {
            OFFSET -0.0975 0.0385 -0.0099
            CHANNELS 3 Zrotation Xrotation Yrotation
            JOINT Joint19
            {
              OFFSET -0.2546 -0.0159 -0.0229
              CHANNELS 3 Zrotation Xrotation Yrotation
              JOINT Joint21
              {
                OFFSET -0.2519 0.0079 0.0007
                CHANNELS 3 Zrotation Xrotation Yrotation
                JOINT Joint37
                {
                  OFFSET -0.1043 -0.0103 0.0246
                  CHANNELS 3 Zrotation Xrotation Yrotation
                  JOINT Joint38
                  {
                    OFFSET -0.0341 0.0034 0.0025
                    CHANNELS 3 Zrotation Xrotation Yrotation
                    JOINT Joint39
                    {
                      OFFSET -0.0236 -0.0015 -0.0003
                      CHANNELS 3 Zrotation Xrotation Yrotation
                      End Site
                      {
                        OFFSET -0.0236 -0.0015 -0.0003
                      }
                    }
                  }
                }
                JOINT Joint40
                {
                  OFFSET -0.1123 -0.0074 -0.0003
                  CHANNELS 3 Zrotation Xrotation Yrotation
                  JOINT Joint41
                  {
                    OFFSET -0.0322 0.0016 -0.0048
                    CHANNELS 3 Zrotation Xrotation Yrotation
                    JOINT Joint42
                    {
                      OFFSET -0.0245 -0.0012 -0.0045
                      CHANNELS 3 Zrotation Xrotation Yrotation
                      End Site
                      {
                        OFFSET -0.0245 -0.0012 -0.0045
                      }
                    }
                  }
                }
                JOINT Joint43
                {
                  OFFSET -0.0863 -0.0161 -0.0419
                  CHANNELS 3 Zrotation Xrotation Yrotation
                  JOINT Joint44
                  {
                    OFFSET -0.0162 -0.0001 -0.0120
                    CHANNELS 3 Zrotation Xrotation Yrotation
                    JOINT Joint45
                    {
                      OFFSET -0.0165 -0.0007 -0.0110
                      CHANNELS 3 Zrotation Xrotation Yrotation
                      End Site
                      {
                        OFFSET -0.0165 -0.0007 -0.0110
                      }
                    }
                  }
                }
                JOINT Joint46
                {
                  OFFSET -0.0999 -0.0107 -0.0248
                  CHANNELS 3 Zrotation Xrotation Yrotation
                  JOINT Joint47
                  {
                    OFFSET -0.0290 0.0016 -0.0050
                    CHANNELS 3 Zrotation Xrotation Yrotation
                    JOINT Joint48
                    {
                      OFFSET -0.0236 -0.0012 -0.0076
                      CHANNELS 3 Zrotation Xrotation Yrotation
                      End Site
                      {
                        OFFSET -0.0236 -0.0012 -0.0076
                      }
                    }
                  }
                }
                JOINT Joint49
                {
                  OFFSET -0.0397 -0.0214 0.0306
                  CHANNELS 3 Zrotation Xrotation Yrotation
                  JOINT Joint50
                  {
                    OFFSET -0.0191 0.0007 0.0247
                    CHANNELS 3 Zrotation Xrotation Yrotation
                    JOINT Joint51
                    {
                      OFFSET -0.0231 -0.0056 0.0141
                      CHANNELS 3 Zrotation Xrotation Yrotation
                      End Site
                      {
                        OFFSET -0.0231 -0.0056 0.0141
                      }
                    }
                  }
                }
              }
            }
          }
        }
      }
    }
  }
}
MOTION
Frames: 7
Frame Time: 0.0333
0.0000 0.0000 0.0000 129.7242 83.6451 0.2473 11.4505 -6.2490 -35.9286 12.8369 40.5295 -25.6580 10.2242 -19.1985 4.5441 -0.3539 -0.0288 0.4860 -11.2487 -26.8161 18.0485 21.3535 18.1808 -21.8745 14.8786 -19.4810 29.3138 0.3838 -0.7005 -0.0524 -5.2991 25.9839 15.5472 27.4631 2.9010 7.8314 -15.0068 -2.0104 38.0847 6.4750 -15.6406 31.8851 -2.6326 20.0303 -22.3481 -37.6898 -23.4147 21.7079 -88.2012 -32.7965 -53.9457 -13.6609 -15.2311 6.7132 -0.1358 -17.5183 20.7846 -23.4135 5.7059 3.4979 -42.8834 7.2318 -1.2638 -11.4729 -4.7840 -5.7174 -30.1926 -7.4858 0.9087 -40.6216 -8.5737 0.0312 -19.7730 -0.4459 -5.1566 -40.3286 -21.0211 -19.2000 -29.9505 -11.0689 -6.6258 -5.4805 -21.2580 -4.5741 -36.8482 -5.6175 -6.8035 -37.1195 -15.0530 -8.6926 -22.8223 -8.2930 -9.5698 -16.7147 46.4934 24.0876 3.6249 -28.0331 2.1640 -17.9634 30.4169 8.2182 32.0317 -4.9088 29.8188 42.5709 17.8921 -6.5017 -32.7088 -0.5838 21.3090 3.0764 -20.5752 2.9209 24.7498 5.1751 -4.1790 43.2000 7.6098 0.6666 10.7736 -5.2667 5.8044 30.0926 -6.9433 -0.7695 40.1980 -8.2849 0.3409 19.9587 -0.0853 5.6296 39.5858 -20.6429 19.2617 29.8056 -10.7517 6.8780 5.4601 -21.1873 4.3513 36.3117 -6.3405 7.4661 38.4904 -14.9868 8.5631 21.9024 -8.5512 8.8369 15.7977 47.0455 -23.5696 -4.3183 -28.7894 -2.1370 18.2107 29.0465 -7.8623
0.0000 0.0000 0.0000 129.8591 83.5487 0.3356 11.4864 -6.4398 -35.8957 12.7321 40.5801 -25.6225 10.2330 -19.0721 4.7218 -0.3050 -0.0303 0.4097 -11.7440 -26.9503 17.5537 21.2973 18.1982 -21.7993 14.6617 -19.4303 28.9066 0.3838 -0.6798 -0.0952 -5.0935 25.9772 15.5211 27.3774 3.0404 7.9645 -15.2078 -2.1307 38.4451 6.4202 -15.6318 31.7333 -2.8329 19.8298 -22.1317 -37.7872 -23.2673 21.6678 -88.0372 -33.0685 -53.8315 -13.8152 -15.5785 6.6959 -0.1861 -17.5861 20.6814 -23.4853 5.6043 3.5456 -42.8144 7.2234 -1.2614 -11.5267 -4.7839 -5.7184 -30.1938 -7.5388 0.9742 -40.6086 -8.6104 0.1022 -19.6819 -0.4431 -5.0889 -40.3864 -20.9912 -19.2380 -29.8982 -11.0415 -6.6999 -5.4587 -21.2936 -4.7103 -36.7861 -5.6344 -6.7230 -37.2261 -15.0547 -8.8686 -22.7011 -8.2177 -9.5897 -16.6710 46.6018 24.0980 3.6765 -27.9252 2.0907 -18.1593 30.3949 8.3527 31.9570 -5.0560 29.8893 42.2908 17.9318 -6.3882 -32.6140 -0.6133 21.4271 3.0732 -20.5208 3.0627 24.7281 5.1535 -4.2509 43.2759 7.5514 0.6029 10.6954 -5.2377 5.6737 30.0066 -6.9034 -0.8691 40.1464 -8.3263 0.2903 19.9071 -0.1998 5.6502 39.6098 -20.6586 19.3149 29.7977 -10.7446 6.8391 5.3899 -21.1508 4.2518 36.2418 -6.3211 7.4483 38.3609 -14.9658 8.4788 21.7793 -8.6288 8.8186 15.6945 47.0911 -23.5524 -4.2294 -28.7860 -1.9964 18.2670 29.0068 -7.9817
0.0000 0.0000 0.0000 130.2581 83.5968 0.1374 11.4075 -6.6009 -36.0170 12.8723 40.8602 -25.9558 10.3556 -19.1595 4.8161 -0.3376 -0.0940 0.3726 -11.9296 -26.9628 17.5503 21.3958 18.1399 -21.9737 14.6988 -19.5285 29.3258 0.3741 -0.6596 -0.0935 -4.9231 26.2652 15.7959 27.4210 3.1744 8.1089 -15.4363 -2.6075 39.1223 6.4608 -15.6073 32.2369 -3.0130 19.9398 -22.3435 -37.8964 -23.3713 21.7090 -87.8656 -33.2170 -53.8953 -13.9432 -15.8524 6.8008 -0.2266 -17.5975 20.6948 -23.4648 5.5793 3.6064 -42.7757 7.2082 -1.2932 -11.5369 -4.7841 -5.6771 -30.1634 -7.5572 1.0570 -40.5964 -8.6536 0.0673 -19.6363 -0.3560 -5.0633 -40.3956 -20.9870 -19.2541 -29.9587 -11.0309 -6.7586 -5.4508 -21.1862 -4.7671 -36.7689 -5.6626 -6.6534 -37.3648 -15.0417 -8.9652 -22.6255 -8.1843 -9.5753 -16.6331 46.5297 24.1025 3.6276 -27.7767 1.9818 -18.1848 30.3645 8.3917 31.8581 -5.2288 30.2024 42.0703 18.2424 -6.2113 -32.9702 -0.4143 21.4889 3.2322 -20.6497 3.0970 24.6545 5.1587 -4.2846 43.3915 7.5665 0.6467 10.6605 -5.1967 5.6174 30.1039 -6.8439 -0.9523 40.0886 -8.3461 0.3130 19.9434 -0.2556 5.6841 39.6110 -20.6829 19.3564 29.7726 -10.7637 6.8106 5.4017 -21.1199 4.3098 36.2576 -6.2491 7.5000 38.3310 -14.9391 8.5039 21.7381 -8.6497 8.8525 15.6509 47.0347 -23.5252 -4.1184 -28.7788 -1.9399 18.3418 28.9495 -8.0975
0.0000 0.0000 0.0000 130.3278 83.7055 0.2438 11.2275 -6.7225 -36.2343 13.0788 41.0283 -26.3026 10.4985 -19.3895 4.8611 -0.4191 -0.1626 0.3603 -12.0081 -26.9682 17.8174 21.6149 18.0228 -22.2797 14.8028 -19.7093 29.9693 0.3341 -0.6527 -0.0849 -4.8136 26.7774 16.3340 27.5783 3.3078 8.2488 -15.5965 -3.1497 39.8034 6.5231 -15.6462 32.9869 -3.1992 20.1266 -22.8010 -37.9630 -23.6069 21.7983 -87.8106 -33.2924 -54.0683 -13.9426 -16.0232 6.8917 -0.2353 -17.5514 20.7378 -23.4287 5.6223 3.6265 -42.7562 7.1977 -1.3261 -11.5058 -4.8037 -5.6196 -30.1219 -7.5274 1.1104 -40.5808 -8.6950 0.0142 -19.6646 -0.3165 -5.0448 -40.3680 -20.9979 -19.2247 -30.0511 -11.0544 -6.7911 -5.4634 -21.0274 -4.7510 -36.7857 -5.7181 -6.6261 -37.4278 -15.0084 -8.9948 -22.6628 -8.2085 -9.5985 -16.6372 46.4077 24.1005 3.5899 -27.7085 1.9238 -18.0798 30.3945 8.3635 31.8431 -5.3961 30.5837 41.8477 18.7519 -6.0694 -33.5287 -0.0645 21.4803 3.4210 -20.8805 3.0323 24.5663 5.1733 -4.2897 43.4956 7.5969 0.7264 10.6958 -5.1994 5.6059 30.2673 -6.8397 -0.9750 40.0261 -8.3547 0.2967 19.9900 -0.2195 5.7208 39.6419 -20.6837 19.4003 29.7744 -10.7723 6.7840 5.4140 -21.1196 4.4033 36.3259 -6.2005 7.4983 38.3623 -14.9353 8.5985 21.7597 -8.6495 8.8991 15.7067 46.9495 -23.5860 -4.0511 -28.7528 -1.9397 18.3969 28.9294 -8.1033
0.0000 0.0000 0.0000 130.1142 83.7626 0.6453 11.0815 -6.8177 -36.3609 13.2171 41.1139 -26.4832 10.5626 -19.5276 4.9338 -0.4546 -0.1807 0.3573 -12.2412 -27.0096 17.9619 21.7929 17.9015 -22.5040 14.8168 -19.8604 30.2288 0.2909 -0.6473 -0.0825 -4.7443 27.2931 16.9814 27.7558 3.4478 8.3953 -15.7063 -3.5805 40.2983 6.5277 -15.7423 33.4705 -3.3807 20.0836 -23.1124 -37.9222 -23.6877 21.9035 -87.8143 -33.3359 -54.1654 -13.8836 -16.1925 6.8845 -0.2204 -17.4602 20.6551 -23.4372 5.6628 3.5977 -42.7954 7.2150 -1.3490 -11.5100 -4.8253 -5.5995 -30.1212 -7.4894 1.1235 -40.5401 -8.7424 -0.0104 -19.6790 -0.3328 -5.0494 -40.3465 -21.0137 -19.1796 -30.0777 -11.0884 -6.7683 -5.4265 -20.9148 -4.7039 -36.7659 -5.7776 -6.6082 -37.4358 -14.9929 -9.0062 -22.7592 -8.2670 -9.6147 -16.7091 46.3973 24.1664 3.5637 -27.7754 1.9486 -17.9396 30.5122 8.3519 31.9355 -5.5145 30.7953 41.5829 19.1747 -5.9959 -33.9902 0.1789 21.5609 3.5365 -21.0435 2.9610 24.4938 5.1563 -4.2942 43.5159 7.5878 0.7863 10.7262 -5.2095 5.6111 30.3594 -6.8849 -0.9624 39.9948 -8.3720 0.2577 20.0218 -0.1788 5.7204 39.6633 -20.6597 19.4699 29.7822 -10.7609 6.7762 5.3756 -21.1176 4.4430 36.3569 -6.2555 7.4605 38.3835 -14.9568 8.6652 21.8080 -8.6343 8.9361 15.7977 46.8876 -23.7272 -4.0516 -28.7233 -1.9558 18.3880 28.9848 -8.0915
0.0000 0.0000 0.0000 129.9149 83.7351 1.0546 11.0015 -6.8561 -36.3856 13.2109 41.1379 -26.4643 10.5924 -19.5408 5.0589 -0.4519 -0.1696 0.3686 -12.6947 -27.0571 17.8529 21.8652 17.7908 -22.6538 14.7299 -19.9459 30.0230 0.2783 -0.6549 -0.1035 -4.6344 27.6110 17.4860 27.9485 3.6596 8.5556 -15.8074 -3.8979 40.6427 6.4619 -15.8431 33.5810 -3.5439 19.7997 -23.1775 -37.8130 -23.5898 21.9229 -87.8595 -33.3651 -54.0757 -13.8392 -16.4433 6.7403 -0.1885 -17.3068 20.4185 -23.4848 5.7014 3.5520 -42.8215 7.2485 -1.3821 -11.4959 -4.8399 -5.6006 -30.1423 -7.4465 1.1377 -40.5103 -8.7877 -0.0261 -19.6241 -0.3393 -5.0673 -40.3584 -21.0012 -19.1293 -30.0436 -11.0924 -6.7319 -5.4165 -20.8997 -4.6586 -36.7569 -5.8049 -6.6182 -37.4140 -15.0068 -9.0127 -22.8234 -8.2956 -9.6025 -16.8007 46.4642 24.2775 3.5754 -27.8541 2.0211 -17.8941 30.6338 8.3574 32.0047 -5.6021 30.8779 41.3214 19.3721 -5.9700 -34.1504 0.2632 21.7393 3.5599 -21.0389 2.9651 24.4884 5.1285 -4.3052 43.5009 7.5605 0.7798 10.6944 -5.2265 5.6019 30.3325 -6.9331 -0.9392 40.0518 -8.4132 0.2415 20.0153 -0.1595 5.7057 39.6908 -20.6673 19.5412 29.7914 -10.6886 6.8222 5.3254 -21.0872 4.4166 36.3320 -6.4061 7.4134 38.3668 -14.9702 8.6536 21.8329 -8.6227 8.8996 15.8580 46.8666 -23.8417 -4.1022 -28.6803 -1.9839 18.3147 29.0661 -8.0734
0.0000 0.0000 0.0000 130.0186 83.6755 1.1528 10.9917 -6.8718 -36.4060 13.0560 41.1028 -26.3228 10.5889 -19.4794 5.1495 -0.4442 -0.1595 0.3992 -13.2524 -27.0406 17.5910 21.8451 17.7446 -22.7646 14.5846 -20.0136 29.5367 0.2798 -0.6505 -0.1316 -4.4284 27.7703 17.7118 28.2151 3.9533 8.7285 -15.9478 -4.1859 40.9768 6.4344 -15.9319 33.5313 -3.6937 19.4012 -23.1341 -37.7122 -23.4395 21.8668 -87.9296 -33.4734 -53.8256 -13.8677 -16.8183 6.4764 -0.1715 -17.1459 20.1767 -23.4955 5.7207 3.5321 -42.8304 7.2926 -1.4017 -11.4678 -4.8664 -5.5955 -30.1469 -7.4226 1.1610 -40.4880 -8.8101 -0.0301 -19.5582 -0.2771 -5.0817 -40.3749 -20.9972 -19.0978 -29.9945 -11.0889 -6.7091 -5.4082 -20.9171 -4.6129 -36.7444 -5.8304 -6.6579 -37.3852 -15.0107 -9.0263 -22.7956 -8.3065 -9.5806 -16.8421 46.5585 24.3363 3.6330 -27.8569 2.0625 -17.9477 30.7395 8.3778 32.0220 -5.6645 30.8645 41.1157 19.5401 -5.9147 -34.1759 0.2681 21.8834 3.4497 -20.9572 2.9938 24.5358 5.1117 -4.3079 43.4750 7.5124 0.7440 10.6465 -5.2287 5.5911 30.2522 -6.9500 -0.9361 40.1151 -8.4285 0.2425 20.0233 -0.1634 5.6956 39.7050 -20.7095 19.5982 29.8087 -10.6966 6.8508 5.2956 -21.0568 4.3325 36.2964 -6.4446 7.4082 38.2957 -14.9625 8.5996 21.8685 -8.6689 8.8600 15.8688 46.8344 -23.8694 -4.1527 -28.6403 -2.0023 18.2094 29.1402 -8.0492
